<?xml version="1.0" standalone="no"?>
<svg viewBox="0 0 200 200" xmlns="http://www.w3.org/2000/svg">
  <path fill="#B0BAFB" d="M47.1,-71.1C59,-65.5,65.5,-49.2,65.7,-34.3C66,-19.3,60,-5.8,57.1,7.6C54.3,21,54.6,34.3,50.1,48.3C45.6,62.3,36.2,76.9,23.5,81.2C10.8,85.5,-5.4,79.3,-15.8,69.2C-26.2,59,-30.8,44.9,-38.4,34.3C-46,23.7,-56.6,16.7,-62.3,6.2C-68.1,-4.2,-69,-18.1,-65,-30.8C-61,-43.6,-51.9,-55.2,-40.3,-60.9C-28.6,-66.6,-14.3,-66.3,1.6,-68.9C17.5,-71.4,35.1,-76.6,47.1,-71.1Z" transform="translate(100 100)" />
</svg>
