<?xml version="1.0" standalone="no"?>
<svg viewBox="0 0 200 200" xmlns="http://www.w3.org/2000/svg">
  <path fill="#03A9F4" d="M41.4,-51.9C55.7,-46.6,70.7,-37.2,78.8,-23.1C87,-8.9,88.1,10.1,79.2,22.1C70.3,34.2,51.4,39.4,36.5,48.8C21.6,58.2,10.8,71.8,-1.1,73.3C-13,74.7,-25.9,64.1,-39.3,54.3C-52.8,44.4,-66.6,35.3,-72.2,22.5C-77.7,9.6,-75,-6.9,-70.6,-23.8C-66.3,-40.6,-60.4,-57.8,-48.4,-63.9C-36.3,-69.9,-18.2,-64.8,-2.3,-61.6C13.5,-58.5,27.1,-57.2,41.4,-51.9Z" transform="translate(100 100)" />
</svg>
